<svg width="32" height="32" viewBox="0 0 32 32" fill="none" xmlns="http://www.w3.org/2000/svg">
<g clip-path="url(#clip0_1_192)">
<path d="M31.5174 19.8706C29.3804 28.442 20.699 33.6585 12.1266 31.521C3.55769 29.384 -1.65875 20.7021 0.479225 12.1312C2.6152 3.55876 11.2966 -1.65819 19.8665 0.478793C28.4384 2.61577 33.6544 11.2987 31.5174 19.8706Z" fill="#F7931A"/>
<path d="M23.05 13.7206C23.3685 11.5917 21.7475 10.4472 19.531 9.68369L20.25 6.79971L18.4945 6.36222L17.7946 9.17019C17.3331 9.05519 16.8591 8.94669 16.3881 8.83919L17.0931 6.01272L15.3386 5.57523L14.6191 8.4582C14.2371 8.3712 13.8621 8.2852 13.4981 8.1947L13.5001 8.1857L11.0791 7.58121L10.6121 9.45619C10.6121 9.45619 11.9146 9.75468 11.8871 9.77318C12.5981 9.95068 12.7266 10.4212 12.7051 10.7942L11.8861 14.0796C11.9351 14.0921 11.9986 14.1101 12.0686 14.1381C12.0101 14.1236 11.9476 14.1076 11.8831 14.0921L10.7351 18.6946C10.6481 18.9106 10.4276 19.2346 9.93063 19.1116C9.94813 19.1371 8.65465 18.7931 8.65465 18.7931L7.78316 20.8026L10.0676 21.3721C10.4926 21.4786 10.9091 21.5901 11.3191 21.6951L10.5926 24.612L12.3461 25.0495L13.0656 22.1636C13.5446 22.2936 14.0096 22.4136 14.4646 22.5266L13.7476 25.399L15.5031 25.8365L16.2296 22.925C19.223 23.4915 21.474 23.263 22.4215 20.5556C23.185 18.3756 22.3835 17.1181 20.8085 16.2981C21.9555 16.0336 22.8195 15.2791 23.05 13.7206ZM19.039 19.3451C18.4965 21.5251 14.8261 20.3466 13.6361 20.0511L14.6001 16.1866C15.7901 16.4836 19.606 17.0716 19.039 19.3451ZM19.582 13.6891C19.087 15.6721 16.0321 14.6646 15.0411 14.4176L15.9151 10.9127C16.9061 11.1597 20.0975 11.6207 19.582 13.6891Z" fill="white"/>
</g>
<defs>
<clipPath id="clip0_1_192">
<rect width="32" height="32" fill="white"/>
</clipPath>
</defs>
</svg>
