<svg width="500" height="500" xmlns="http://www.w3.org/2000/svg" version="1.0" preserveAspectRatio="xMidYMid meet">
 <g>
  <title>Layer 1</title>
  <rect stroke="#000" fill="#0d6efd" x="0" y="0" width="500" height="500" id="svg_5" rx="50" stroke-width="0"/>
  <g stroke="null" transform="translate(0 512) scale(0.1 -0.1)" fill="#000000" id="svg_1">
   <path stroke="null" d="m2811.38717,4296.79029c-160.26695,-16.47604 -317.53826,-60.66179 -450.09551,-127.31487c-122.82141,-61.4107 -202.20597,-119.82576 -314.54262,-231.4135c-153.52675,-152.77785 -230.66459,-266.61232 -422.3858,-621.59613c-167.75606,-309.30024 -237.40479,-414.14778 -342.25233,-513.75294c-117.57903,-111.58774 -236.65588,-161.01586 -418.64124,-174.49626c-87.62259,-5.99129 -105.59645,-13.4804 -137.05071,-56.16832c-21.71842,-29.20753 -21.71842,-99.60516 0,-128.81269c30.70535,-41.93902 49.42812,-49.42812 131.80833,-56.91723c107.84318,-8.98693 170.7517,-27.70971 313.0448,-95.8606c251.63409,-119.82576 315.29153,-137.79962 490.5367,-137.79962c176.74299,-0.74891 245.6428,17.22495 475.55849,126.56596c198.46142,94.36279 273.35252,114.58338 404.41194,106.34537c100.35408,-6.7402 163.2626,-26.96079 322.03173,-101.85189c235.90696,-113.08556 304.80677,-131.80833 479.30304,-131.80833c174.49626,0 243.39608,18.72278 479.30304,131.80833c156.5224,74.14219 217.9331,93.61388 328.02302,102.6008c82.38021,7.48911 101.10298,14.97822 131.80833,56.91723c21.71842,29.20753 21.71842,99.60516 0,128.81269c-33.70099,45.68357 -49.42812,51.67486 -136.3018,50.92595c-135.55289,-0.74891 -227.66895,-27.70971 -428.37709,-122.82141c-76.38892,-35.94773 -161.01586,-72.64436 -187.97666,-80.88239c-149.03329,-45.68357 -296.56876,-32.95208 -444.85313,39.69228c-122.82141,59.91288 -208.19726,145.28874 -269.60796,269.60796c-47.93031,96.60952 -65.90417,179.73864 -65.90417,295.81985c0.74891,106.34537 15.72713,175.99409 54.67051,255.37865c50.17703,102.6008 101.85189,152.02894 186.47884,175.99409c79.38456,23.21624 178.98973,3.74455 211.94181,-42.68793c8.23802,-10.48475 17.22495,-40.44119 20.9695,-66.65307c11.23366,-80.13348 49.42812,-116.08121 122.07249,-116.08121c130.31051,0.74891 277.84598,146.03765 336.26104,333.26539c24.71407,80.13348 24.71407,211.94181 0,292.07529c-23.21624,73.39328 -53.17268,131.80833 -95.8606,184.98102c-162.51369,204.45271 -425.38144,291.32638 -774.37397,256.12756l-0.00001,-0.00001z" id="svg_2" fill="#ffffff"/>
   <path stroke="null" d="m778.09382,2018.60304c-72.64436,-33.70099 -92.86496,-128.81269 -40.44119,-188.72557c26.96079,-30.70535 50.92595,-38.19446 134.05507,-44.18575c91.36714,-5.99129 159.51804,-27.70971 299.5644,-94.36279c251.63409,-119.82576 315.29153,-137.79962 490.5367,-137.79962c176.74299,-0.74891 245.6428,17.22495 475.55849,126.56596c198.46142,94.36279 273.35252,114.58338 404.41194,106.34537c100.35408,-6.7402 163.2626,-26.96079 322.03173,-101.85189c235.90696,-113.08556 304.80677,-131.80833 479.30304,-131.80833c174.49626,0 243.39608,18.72278 479.30304,131.80833c156.5224,74.14219 217.9331,93.61388 328.02302,102.6008c82.38021,7.48911 101.10298,14.97822 131.80833,56.91723c21.71842,29.20753 21.71842,99.60516 0,128.81269c-34.44991,47.18139 -48.67922,51.67486 -143.79091,50.17703c-134.80398,-1.49782 -241.89825,-32.95208 -423.13472,-123.57032c-164.01151,-81.6313 -261.36994,-110.83883 -371.45986,-110.83883c-112.33665,0 -184.2321,20.9695 -367.7153,108.59209c-229.16676,108.59209 -298.81549,127.31487 -471.81393,127.31487c-174.49626,0 -243.39608,-18.72278 -479.30304,-131.05942c-158.02022,-75.64001 -221.67766,-95.8606 -319.785,-102.6008c-130.31051,-8.98693 -208.94617,11.98258 -414.14778,110.08992c-194.71686,92.11605 -276.34816,116.83012 -411.90105,123.57032c-58.41506,2.99564 -84.62694,1.49782 -101.10298,-5.99129l0,-0.00001z" id="svg_3" fill="#ffffff"/>
   <path stroke="null" d="m778.09382,1419.47424c-72.64436,-33.70099 -92.86496,-128.81269 -40.44119,-188.72557c26.96079,-30.70535 50.92595,-38.19446 134.05507,-44.18575c91.36714,-5.99129 159.51804,-27.70971 299.5644,-94.36279c251.63409,-119.82576 315.29153,-137.79962 490.5367,-137.79962c176.74299,-0.74891 245.6428,17.22495 475.55849,126.56596c198.46142,94.36279 273.35252,114.58338 404.41194,106.34537c100.35408,-6.7402 163.2626,-26.96079 322.03173,-101.85189c235.90696,-113.08556 304.80677,-131.80833 479.30304,-131.80833c174.49626,0 243.39608,18.72278 479.30304,131.80833c156.5224,74.14219 217.9331,93.61388 328.02302,102.6008c82.38021,7.48911 101.10298,14.97822 131.80833,56.91723c21.71842,29.20753 21.71842,99.60516 0,128.81269c-34.44991,47.18139 -48.67922,51.67486 -143.79091,50.17703c-134.80398,-1.49782 -241.89825,-32.95208 -423.13472,-123.57032c-164.01151,-81.6313 -261.36994,-110.83883 -371.45986,-110.83883c-112.33665,0 -184.2321,20.9695 -367.7153,108.59209c-229.16676,108.59209 -298.81549,127.31487 -471.81393,127.31487c-174.49626,0 -243.39608,-18.72278 -479.30304,-131.05942c-158.02022,-75.64001 -221.67766,-95.8606 -319.785,-102.6008c-130.31051,-8.98693 -208.94617,11.98258 -414.14778,110.08992c-194.71686,92.11605 -276.34816,116.83012 -411.90105,123.57032c-58.41506,2.99564 -84.62694,1.49782 -101.10298,-5.99129l0,-0.00001z" id="svg_4" fill="#ffffff"/>
  </g>
 </g>

</svg>