<svg width="32" height="32" viewBox="0 0 32 32" fill="none" xmlns="http://www.w3.org/2000/svg">
<g clip-path="url(#clip0_3_395)">
<path fill-rule="evenodd" clip-rule="evenodd" d="M0 16.0087C0 7.17622 7.17882 0 16.0109 0C24.8229 0 32 7.17622 32 16.0087C32 24.8229 24.8229 32 16.0109 32C7.17882 32 0 24.8229 0 16.0087ZM0.799913 16.0087C0.799913 24.3819 7.62326 31.1997 16.0109 31.1997C24.3815 31.1997 31.2001 24.3802 31.2001 16.0087C31.2001 7.62153 24.3841 0.800347 16.0109 0.800347C7.62066 0.800347 0.799913 7.61806 0.799913 16.0087ZM20.5508 5.94965C18.0187 4.82031 13.3003 4.70833 9.43533 6.42969C9.74436 6.20833 10.0668 6.00868 10.4015 5.82986C10.6055 5.72049 10.8142 5.61892 11.0265 5.52604C12.2435 4.9592 14.2062 4.40972 16.6523 4.40972C16.7678 4.40972 16.8832 4.41059 16.9991 4.41319C19.0907 4.45052 21.5703 5.17274 23.0859 6.67188C23.3438 6.98611 23.4931 7.29948 23.5482 7.54167C24.7509 8.15278 25.4531 8.72569 25.8407 9.39236C26.0087 9.74306 26.0638 10.112 25.9883 10.5382C26.3828 10.7595 26.7248 11.0634 26.9909 11.4297C27.1545 11.7066 27.2843 12.0182 27.3225 12.3003C27.3767 12.6675 27.4132 13.0929 27.0247 13.5938C27.4319 13.7977 27.7635 14.3689 27.8034 14.612C28.0069 15.5156 27.4132 16.4045 26.6558 17.0911C26.089 17.5859 25.0868 18.1415 24.0221 18.5851C23.4171 18.8368 22.7917 19.053 22.2148 19.2005C19.9922 19.763 17.9423 20.0946 16.148 20.3854C15.4067 20.5061 14.7088 20.6189 14.0603 20.7378C14.6515 20.8793 15.3663 21.0486 16.3082 21.1623C16.9566 21.2413 17.7127 21.2934 18.6107 21.2934C23.3251 21.2934 27.4878 19.0703 27.4878 19.0703C27.4878 19.0703 27.3963 19.3498 27.3021 19.6094C24.3064 21.4219 19.5538 22.1797 17.5174 22.0868C15.464 21.9931 13.7261 21.6797 12.0239 21.1606C11.5039 21.3073 10.9918 21.48 10.4896 21.6797C13.0807 22.8637 15.0399 23.1241 17.2418 23.2891C19.4965 23.4575 23.2352 22.9184 26.3767 21.7743C26.3064 21.8455 26.2526 21.9332 26.2001 22.0191C26.1424 22.1128 26.0855 22.2057 26.0087 22.2734C24.3989 23.1241 20.9974 23.9757 19.2765 24.0495C17.5734 24.1241 15.5022 24.0495 13.6888 23.7153C12.135 23.4028 10.8568 22.9184 9.52604 22.329C9.28776 22.5113 9.17665 22.7361 9.11892 22.9957C14.3199 25.7153 19.1632 25.7691 24.6966 24.0495L24.1953 24.5312C18.1094 27.0113 13.3555 26.0477 9.67274 24.2708C9.54557 24.2153 9.39714 24.1589 9.28776 24.0859C9.63976 24.6788 12.4488 26.7326 15.5938 26.9922C16.7309 27.0894 18 27.033 19.1762 26.8672C20.2405 26.717 21.2292 26.4766 21.9757 26.1788L21.0512 26.6589C20.2921 27.0295 18.2765 27.8828 15.4631 27.6962C11.7092 27.4358 9.59983 25.77 8.65582 24.9019C8.21224 24.4922 8.01042 24.0312 7.87977 23.4575C7.02821 23.013 6.49219 22.5486 6.05035 21.8464C5.7908 21.4583 5.84418 20.9965 5.89931 20.605L6.01476 20.276C5.60503 19.9766 5.18012 19.6623 5.01389 19.3498C4.64149 18.6832 4.86719 18.1085 5.125 17.6641C5.04297 17.5694 4.96354 17.4748 4.89149 17.3802C4.76736 17.2161 4.66493 17.0521 4.60894 16.888C4.49653 16.592 4.47917 16.2925 4.51259 15.9609C4.58811 15.4071 4.88411 14.8906 5.27257 14.4444C6.08507 13.5 7.38281 12.7604 9.58116 12.0391C11.2574 11.4792 12.1576 11.2856 13.2331 11.0547C13.5477 10.987 13.8772 10.9167 14.2452 10.8325C16.1502 10.3915 18.4258 10.2448 20.3294 9.57812C15.0204 8.65365 9.50911 9.50347 5.01389 12.5911L5.30903 11.7222C9.34115 9.09549 13.7999 7.54167 21.3464 8.8559C21.7535 8.61458 21.9935 8.37326 22.1063 7.89323C20.2183 7.2092 18.1662 6.96875 15.5217 7.00434C13.1528 7.07986 8.87804 7.96441 6.58811 9.32031L7.28776 8.44878C8.87804 7.50174 13.0399 6.26389 16.1688 6.20833C18.3681 6.15365 19.4965 6.28212 22.1241 6.98611C21.8815 6.54427 21.3464 6.32031 20.5508 5.94965ZM24.5829 9.80035C24.5109 9.28212 23.9188 8.78212 23.3997 8.44878C23.3516 8.61719 23.2192 8.80816 23.0812 8.97743C23.0065 9.06944 22.9301 9.15451 22.8646 9.22656C23.4379 9.37587 24.0299 9.59462 24.5829 9.80035ZM22.0512 9.96528C21.6788 10.2622 21.2556 10.52 20.6246 10.763C21.6628 10.9444 22.4397 11.2413 23.3251 11.4835C23.3342 11.4878 23.3446 11.4896 23.3546 11.4887C23.5473 11.4887 24.181 10.9028 24.2904 10.7422C23.9475 10.592 23.5625 10.441 23.1497 10.2995C22.8003 10.1797 22.4314 10.066 22.0512 9.96528ZM26.0087 12.6858C26.2478 12.2231 26.1003 11.9271 25.6024 11.5009C25.398 11.7439 25.1758 11.9453 24.9358 12.1302C25.1102 12.2135 25.2778 12.2856 25.4397 12.362C25.6372 12.4549 25.8264 12.5538 26.0087 12.6858ZM17.6862 11.7066C15.2444 12.0026 12.5421 12.5182 10.2309 13.204L10.1076 13.2413C8.9605 13.5903 4.62283 14.9062 5.9401 16.7205L5.95573 16.7031C6.0816 16.5608 6.99609 15.5217 9.87804 14.684C11.9054 14.0885 13.9839 13.7101 16.0951 13.3255C17.9913 12.98 19.9141 12.6293 21.8485 12.1128C20.697 11.8064 19.9123 11.6233 18.9306 11.6224C18.5551 11.6224 18.151 11.6493 17.6862 11.7066ZM20.3307 13.9453C19.0178 14.2778 15.8346 14.7405 12.4141 15.48C11.3403 15.7205 8.398 16.4045 6.9553 17.6267C7.18663 17.8177 7.37066 17.9236 7.56771 18.0269C7.71658 18.105 7.87326 18.1823 8.0638 18.2934C8.65582 17.9036 9.47092 17.5339 10.6753 17.2179C12.5751 16.7135 14.0516 16.4705 15.7244 16.1953L16.224 16.1128C18.0924 15.8299 21.6246 15.0903 23.566 14.3872C24.0126 14.2361 24.431 14.0486 24.7873 13.8307C24.9492 13.7318 25.0981 13.6267 25.2309 13.5165C25.1011 13.3707 23.8433 12.7604 23.806 12.8168C23.0317 13.1858 21.9214 13.5547 20.3307 13.9453ZM21.6441 16.4618C17.6862 17.5339 14.8168 17.6797 11.5608 18.48C11.1858 18.5747 10.8051 18.684 10.4332 18.809C10.1623 18.8993 9.89583 18.9983 9.63976 19.1068C10.2478 19.4219 10.9145 19.7005 11.5794 19.9601C12.911 19.5712 13.543 19.4045 15.4631 19.0903L16.5295 18.8984C17.5464 18.7127 18.9666 18.4497 20.0877 18.2222C23.0317 17.5903 27.3411 16.2205 26.1944 14.4444C26.1372 14.4931 26.0799 14.5373 26.0226 14.5816C25.9501 14.6389 25.878 14.6962 25.806 14.7595C24.9358 15.4219 23.5482 15.9609 21.6441 16.4618ZM6.62283 19.4219C6.75087 19.2934 6.91884 19.1814 7.04861 19.0703C6.75087 18.9167 6.54688 18.7865 6.31293 18.6372L6.17839 18.5512C6.02995 18.888 6.32856 19.2535 6.62283 19.4219ZM10.0621 20.4957C9.52604 20.2552 8.95356 20.0165 8.398 19.7569C8.13932 19.9236 7.90017 20.0885 7.71441 20.2552C8.15799 20.5148 8.58464 20.7535 9.02908 20.9974C9.3559 20.796 9.70182 20.6276 10.0621 20.4957ZM7.90017 22.2179C7.95356 22.0312 8.04774 21.8845 8.17752 21.6997C8.03125 21.6215 7.88542 21.5443 7.73958 21.4635C7.57031 21.3689 7.40191 21.2708 7.23351 21.1606C7.21311 21.5139 7.43707 21.8281 7.90017 22.2179Z" fill="#476BF0"/>
</g>
<defs>
<clipPath id="clip0_3_395">
<rect width="32" height="32" fill="white"/>
</clipPath>
</defs>
</svg>
