<?xml version="1.0" standalone="no"?>
<!DOCTYPE svg PUBLIC "-//W3C//DTD SVG 20010904//EN"
 "http://www.w3.org/TR/2001/REC-SVG-20010904/DTD/svg10.dtd">
<svg version="1.0" xmlns="http://www.w3.org/2000/svg"
 width="512.000000pt" height="512.000000pt" viewBox="0 0 512.000000 512.000000"
 preserveAspectRatio="xMidYMid meet">

<g transform="translate(0.000000,512.000000) scale(0.100000,-0.100000)"
fill="#fff" stroke="none">
<path d="M2970 4789 c-214 -22 -424 -81 -601 -170 -164 -82 -270 -160 -420
-309 -205 -204 -308 -356 -564 -830 -224 -413 -317 -553 -457 -686 -157 -149
-316 -215 -559 -233 -117 -8 -141 -18 -183 -75 -29 -39 -29 -133 0 -172 41
-56 66 -66 176 -76 144 -12 228 -37 418 -128 336 -160 421 -184 655 -184 236
-1 328 23 635 169 265 126 365 153 540 142 134 -9 218 -36 430 -136 315 -151
407 -176 640 -176 233 0 325 25 640 176 209 99 291 125 438 137 110 10 135 20
176 76 29 39 29 133 0 172 -45 61 -66 69 -182 68 -181 -1 -304 -37 -572 -164
-102 -48 -215 -97 -251 -108 -199 -61 -396 -44 -594 53 -164 80 -278 194 -360
360 -64 129 -88 240 -88 395 1 142 21 235 73 341 67 137 136 203 249 235 106
31 239 5 283 -57 11 -14 23 -54 28 -89 15 -107 66 -155 163 -155 174 1 371
195 449 445 33 107 33 283 0 390 -31 98 -71 176 -128 247 -217 273 -568 389
-1034 342z"/>
<path d="M255 1747 c-97 -45 -124 -172 -54 -252 36 -41 68 -51 179 -59 122 -8
213 -37 400 -126 336 -160 421 -184 655 -184 236 -1 328 23 635 169 265 126
365 153 540 142 134 -9 218 -36 430 -136 315 -151 407 -176 640 -176 233 0
325 25 640 176 209 99 291 125 438 137 110 10 135 20 176 76 29 39 29 133 0
172 -46 63 -65 69 -192 67 -180 -2 -323 -44 -565 -165 -219 -109 -349 -148
-496 -148 -150 0 -246 28 -491 145 -306 145 -399 170 -630 170 -233 0 -325
-25 -640 -175 -211 -101 -296 -128 -427 -137 -174 -12 -279 16 -553 147 -260
123 -369 156 -550 165 -78 4 -113 2 -135 -8z"/>
<path d="M255 947 c-97 -45 -124 -172 -54 -252 36 -41 68 -51 179 -59 122 -8
213 -37 400 -126 336 -160 421 -184 655 -184 236 -1 328 23 635 169 265 126
365 153 540 142 134 -9 218 -36 430 -136 315 -151 407 -176 640 -176 233 0
325 25 640 176 209 99 291 125 438 137 110 10 135 20 176 76 29 39 29 133 0
172 -46 63 -65 69 -192 67 -180 -2 -323 -44 -565 -165 -219 -109 -349 -148
-496 -148 -150 0 -246 28 -491 145 -306 145 -399 170 -630 170 -233 0 -325
-25 -640 -175 -211 -101 -296 -128 -427 -137 -174 -12 -279 16 -553 147 -260
123 -369 156 -550 165 -78 4 -113 2 -135 -8z"/>
</g>
</svg>
