<svg width="32" height="32" viewBox="0 0 32 32" fill="none" xmlns="http://www.w3.org/2000/svg">
<g clip-path="url(#clip0_5_3491)">
<path d="M32 25.952C32 29.84 29.84 32 25.952 32H6.048C2.16 32 0 29.84 0 25.952V6.048C0 2.16 2.16 0 6.048 0H25.96C29.84 0 32 2.16 32 6.048V25.952Z" fill="#FFE600"/>
<path d="M20.5756 14.4397V11.3837L21.6796 10.2797V12.9277L22.6396 13.8877L26.5036 10.0237L27.4556 10.9757C27.4476 10.2557 27.3036 8.16771 25.5356 6.43171C23.6316 4.59171 21.5676 5.42371 20.8636 6.12771L17.0076 9.98371L17.9916 10.9677L15.9996 12.9757L14.0076 10.9837L14.9916 9.99971L11.1356 6.14371C10.4316 5.43971 8.36759 4.60771 6.46358 6.44771C4.69558 8.18371 4.55158 10.2717 4.54358 10.9917L5.49558 10.0397L9.35959 13.9037L10.3196 12.9437V10.2957L11.4236 11.3997V14.4557L12.9756 15.9997L5.32758 23.6477L8.35159 26.6637L15.9996 19.0237L23.6476 26.6717L26.6716 23.6557L19.0236 15.9997L20.5756 14.4397Z" fill="#2B2D34"/>
</g>
<defs>
<clipPath id="clip0_5_3491">
<rect width="32" height="32" fill="white"/>
</clipPath>
</defs>
</svg>
