<svg width="32" height="32" viewBox="0 0 32 32" fill="none" xmlns="http://www.w3.org/2000/svg">
<g clip-path="url(#clip0_5_3534)">
<path d="M15.8149 32C7.97672 32 1.59998 25.6271 1.59998 17.7929C1.59998 13.2884 3.66612 9.1484 7.26733 6.43489L7.41851 6.32247V0H15.5745V3.58183C15.6521 3.58183 15.7335 3.57795 15.811 3.57795C23.6492 3.57795 30.0221 9.95472 30.0221 17.7929C30.0259 25.6271 23.6492 32 15.8149 32Z" fill="#19502E"/>
<path d="M13.8224 4.268L14.2139 3.88423V0.918762H14.6598V5.31076L11.702 8.21809V0.918762H12.1478V5.90774L12.5393 5.52397V0.918762H12.9851V5.08593L13.3766 4.70604V0.918762H13.8224V4.268ZM10.853 5.90775L10.4615 5.52398V0.91877H10.0119V5.08595L9.62424 4.70218V0.91877H9.17456V4.26802L8.78304 3.88425V0.91877H8.33728V5.31078L11.2989 8.21809V0.91877H10.853V5.90775ZM11.702 10.6564L14.6598 7.74517V5.88447L11.702 8.78017V10.6564ZM11.702 18.0216L14.6598 15.1142V13.1373L11.702 16.033V18.0216ZM14.6598 10.1834L11.702 13.0908V11.2146L14.6598 8.32273V10.1834ZM14.6598 12.6218L11.702 15.529V13.6529L14.6598 10.761V12.6218ZM8.33728 15.1142L11.2989 18.0216V16.033L8.33728 13.1373V15.1142ZM8.33728 7.74904L11.2989 10.6564V8.78017L8.33728 5.88447V7.74904ZM11.2989 13.0908L8.33728 10.1834V8.32273L11.2989 11.2146V13.0908ZM8.33728 12.6218L11.2989 15.529V13.6529L8.33728 10.7571V12.6218ZM19.0905 14.1568H25.975C26.1766 14.1568 26.3472 14.3274 26.3433 14.5367V14.7693C26.3433 14.9786 26.1766 15.1492 25.9712 15.1492H24.9129V15.4748H25.4401V15.9322H24.9129V16.4051H25.4401V17.2774H24.9129V16.8819H24.1298V17.2774H23.6026V16.4051H24.1298V15.9322H23.6026V15.4748H24.1298V15.1492H18.7765C18.9277 15.3856 19.0168 15.6647 19.0168 15.9671C19.0168 16.8238 18.319 17.5177 17.4624 17.5177C16.6057 17.5177 15.9118 16.8238 15.9118 15.9671C15.9118 15.6299 16.0203 15.3198 16.2026 15.0678C16.0669 14.9786 15.9777 14.8274 15.9777 14.653C15.9777 14.4786 16.0669 14.3274 16.2026 14.2382C16.0203 13.9823 15.9118 13.6761 15.9118 13.3389C15.9118 12.4822 16.6057 11.7883 17.4624 11.7883C18.319 11.7883 19.0168 12.4822 19.0168 13.3389C19.0168 13.6412 18.9277 13.9203 18.7765 14.1568H19.0905ZM17.4624 16.7618C17.9043 16.7618 18.2648 16.4051 18.2648 15.9632C18.2648 15.6376 17.8888 14.8623 17.8888 14.8623V14.4398C17.8888 14.4398 18.2648 13.6606 18.2648 13.335C18.2648 12.893 17.9043 12.5326 17.4624 12.5326C17.0243 12.5326 16.6638 12.893 16.6638 13.335C16.6638 13.4978 16.7103 13.649 16.7956 13.773L17.0205 14.1529C16.8809 14.277 16.7956 14.4553 16.7956 14.653C16.7956 14.8506 16.8809 15.029 17.0205 15.1492L16.7956 15.5252C16.7103 15.6492 16.6638 15.8004 16.6638 15.9632C16.6638 16.4051 17.0243 16.7618 17.4624 16.7618Z" fill="#FFCB05"/>
<path d="M15.8149 4.49667C15.6017 4.49667 15.3885 4.50055 15.1792 4.51218V5.41927C15.3885 5.40763 15.6017 5.40376 15.8149 5.40376C22.6568 5.40376 28.204 10.951 28.204 17.7967C28.204 24.6348 22.6568 30.182 15.8149 30.182C8.96913 30.1781 3.42195 24.6309 3.42195 17.7929C3.42195 13.9939 5.13146 10.5943 7.82171 8.32271V7.16754C4.60039 9.59415 2.51874 13.4474 2.51874 17.7929C2.51874 25.131 8.47297 31.0813 15.8149 31.0813C23.1569 31.0813 29.1111 25.131 29.1111 17.7929C29.1072 10.4509 23.1569 4.49667 15.8149 4.49667ZM5.64703 15.1491V13.2148C5.64703 13.2148 5.96103 14.2846 7.14722 15.4786C7.5302 15.8616 7.97157 16.2898 8.52329 16.8251L8.52345 16.8253L8.52393 16.8258L8.52465 16.8264V16.8265L8.52529 16.8271C8.87217 17.1636 9.26265 17.5425 9.70953 17.9789C9.75113 18.0196 9.79609 18.062 9.84353 18.1068L9.84361 18.1069C10.3616 18.596 11.1748 19.3639 11.1748 21.1111V23.247C10.9811 22.7702 10.8337 22.495 9.97705 21.6577C9.95761 21.6382 9.25945 20.9517 8.53233 20.2367C7.80571 19.5222 7.05027 18.7794 6.91463 18.6457C6.45334 18.1844 5.64703 16.9982 5.64703 15.1491ZM8.52329 21.6009L8.52385 21.6014C8.87105 21.9383 9.26201 22.3176 9.70953 22.7547C9.74993 22.7938 9.79353 22.8347 9.83937 22.8778L9.83945 22.8778C10.3572 23.3638 11.1751 24.1314 11.1787 25.8869V28.1507L11.1643 28.1154C10.9771 27.654 10.8163 27.2577 9.98089 26.4412C9.94601 26.4024 7.18599 23.7044 6.91463 23.4408C6.48823 22.9562 5.64703 21.7778 5.64703 19.9326V18.2619C5.64703 18.2619 5.96103 19.0643 7.14722 20.2544C7.53019 20.6374 7.97155 21.0656 8.52329 21.6009ZM25.8045 23.8634C25.6223 24.1618 25.4247 24.4487 25.2192 24.7317V22.0763H25.8045V23.8634ZM26.9248 21.429C27.0101 21.1731 27.0838 20.9134 27.1496 20.6498H25.2192V21.1266H25.5138C26.0254 21.115 26.5992 21.1072 26.9248 21.429ZM13.555 20.5878H14.0783V25.883H13.555V20.5878ZM12.3533 19.5644H14.0783C14.5241 19.5644 14.8342 19.6574 15.0202 19.8318C15.2025 20.0024 15.2838 20.3164 15.2838 20.7622V25.7124C15.2838 26.1621 15.1986 26.4722 15.0202 26.6466C14.745 26.918 14.2411 26.918 13.8225 26.918C13.7294 26.9102 13.6403 26.9102 13.5589 26.9102V29.2554C13.6043 29.2635 13.6494 29.2718 13.6944 29.2802C13.8226 29.3038 13.9502 29.3274 14.0822 29.3446V27.4181C14.8768 27.4181 15.4002 27.1467 15.6444 26.604V29.4726H15.815C15.9234 29.4726 16.0359 29.4726 16.1444 29.4686V20.8552C16.1444 20.3978 16.2374 20.0799 16.408 19.8978C16.5825 19.7156 16.8926 19.6264 17.3345 19.6264C17.3953 19.6264 17.4598 19.6252 17.5267 19.6239H17.5268C17.9555 19.6159 18.4849 19.6061 18.7766 19.8978C18.951 20.0799 19.0324 20.4017 19.0324 20.8552V23.3943H17.8462V20.6846H17.3345V29.3834C17.505 29.364 17.6756 29.3369 17.8462 29.3058V23.9021H19.0324V29.0268C19.2766 28.957 19.517 28.8794 19.7534 28.7942V24.1037C19.7534 23.5726 19.8813 23.1734 20.4202 22.9911L19.8232 19.731H21.021L21.2226 23.2935H21.3698L21.5714 19.731H22.8352L22.1607 22.9911C22.7267 23.1889 22.8352 23.5378 22.8352 24.1037V27.135C23.1841 26.8714 23.5213 26.5885 23.8392 26.2862V19.7039H27.3474C27.3706 19.5489 27.3938 19.3861 27.4132 19.2271H19.203L19.3192 19.8163C19.0595 19.3395 18.5672 19.0992 17.8462 19.0992H17.3345C16.4662 19.0992 15.9351 19.4442 15.7335 20.1342C15.5475 19.4132 14.997 19.0527 14.0822 19.0527H11.8338V28.7786C12.0044 28.8407 12.1788 28.8989 12.3533 28.9531V19.5644ZM23.2539 23.309L22.6878 22.7702L23.2539 19.8474V23.309ZM21.5598 27.9685C21.3815 28.0693 21.2032 28.1623 21.021 28.2554V23.9564H21.5598V27.9685Z" fill="white"/>
</g>
<defs>
<clipPath id="clip0_5_3534">
<rect width="32" height="32" fill="white"/>
</clipPath>
</defs>
</svg>
