<?xml version="1.0" standalone="no"?><svg xmlns="http://www.w3.org/2000/svg" viewBox="0 0 1440 320"><path fill="#323232" fill-opacity="1" d="M0,320L30,288C60,256,120,192,180,154.7C240,117,300,107,360,128C420,149,480,203,540,192C600,181,660,107,720,96C780,85,840,139,900,181.3C960,224,1020,256,1080,245.3C1140,235,1200,181,1260,170.7C1320,160,1380,192,1410,208L1440,224L1440,320L1410,320C1380,320,1320,320,1260,320C1200,320,1140,320,1080,320C1020,320,960,320,900,320C840,320,780,320,720,320C660,320,600,320,540,320C480,320,420,320,360,320C300,320,240,320,180,320C120,320,60,320,30,320L0,320Z"></path></svg>